<?xml version="1.0" standalone="no"?>
<!DOCTYPE svg PUBLIC "-//W3C//DTD SVG 20010904//EN"
 "http://www.w3.org/TR/2001/REC-SVG-20010904/DTD/svg10.dtd">
<svg version="1.0" xmlns="http://www.w3.org/2000/svg"
width="555.000000pt" height="501.000000pt" viewBox="0 0 555.000000 501.000000"
 preserveAspectRatio="xMidYMid meet">
    <g transform="translate(0.000000,501.000000) scale(0.100000,-0.100000)"
    fill="#3279BB" stroke="none">
<path d="M545 4827 c-22 -13 -83 -48 -135 -77 -120 -68 -212 -127 -222 -143
-12 -19 -10 -705 2 -728 6 -10 34 -40 62 -66 29 -27 115 -106 193 -178 77 -71
165 -152 195 -179 30 -27 93 -86 140 -130 47 -45 133 -124 190 -176 58 -52
137 -124 175 -161 39 -36 122 -112 185 -169 298 -267 347 -324 306 -347 -8 -4
-70 -60 -138 -124 -67 -64 -169 -159 -225 -210 -131 -121 -546 -505 -783 -723
-102 -94 -213 -198 -248 -232 l-62 -61 0 -477 0 -476 28 -11 c36 -15 383 -4
414 12 24 13 143 121 438 399 97 91 272 255 390 365 118 110 262 245 320 301
58 55 139 131 180 169 41 38 118 109 170 160 52 50 133 127 180 170 114 105
340 316 593 553 150 142 207 201 207 218 0 24 -14 38 -260 264 -80 74 -226
210 -325 304 -99 94 -320 301 -490 461 -171 159 -362 339 -425 400 -63 61
-171 162 -240 225 -69 63 -165 153 -215 201 -49 47 -119 112 -155 144 -36 32
-112 104 -170 161 -137 133 -197 184 -218 184 -9 0 -35 -11 -57 -23z"/>
<path d="M2895 4829 c-111 -58 -360 -206 -374 -223 -9 -10 -11 -115 -9 -371
l3 -356 45 -37 c44 -36 315 -283 540 -491 63 -59 169 -156 235 -216 66 -60
152 -138 190 -174 39 -36 161 -148 273 -249 130 -118 202 -190 202 -203 0 -20
-3 -23 -86 -99 -71 -66 -338 -314 -414 -386 -36 -33 -132 -123 -215 -199 -600
-552 -742 -686 -753 -709 -9 -20 -12 -147 -12 -480 0 -436 1 -454 19 -471 18
-15 39 -17 208 -13 103 3 199 9 213 15 32 14 101 75 354 313 114 107 267 251
341 320 284 266 745 699 845 795 58 56 161 152 230 215 69 63 163 150 210 195
47 44 166 157 265 250 99 94 192 182 207 197 17 16 28 37 28 53 0 30 -21 52
-215 231 -77 71 -257 239 -400 374 -143 135 -316 297 -385 360 -69 63 -174
162 -235 220 -60 58 -207 195 -325 305 -118 110 -260 243 -315 295 -155 146
-218 205 -375 349 -80 74 -161 151 -181 172 -42 44 -58 47 -114 18z"/>
</g>
</svg>
